<?xml version="1.0" standalone="no"?>
<!DOCTYPE svg PUBLIC "-//W3C//DTD SVG 20010904//EN"
 "http://www.w3.org/TR/2001/REC-SVG-20010904/DTD/svg10.dtd">
<svg version="1.0" xmlns="http://www.w3.org/2000/svg"
 width="512.000000pt" height="512.000000pt" viewBox="0 0 512.000000 512.000000"
 preserveAspectRatio="xMidYMid meet">

<g transform="translate(0.000000,512.000000) scale(0.100000,-0.100000)"
fill="#000000" stroke="none">
<path d="M0 2560 l0 -2560 550 0 550 0 0 1655 c0 910 3 1655 8 1654 4 0 324
-483 712 -1074 545 -831 710 -1074 725 -1074 15 0 85 99 300 427 154 235 280
434 279 442 0 8 -389 640 -863 1405 -475 765 -904 1456 -955 1537 l-91 148
-607 0 -608 0 0 -2560z"/>
<path d="M3428 4351 c-263 -422 -478 -772 -478 -776 0 -12 574 -935 581 -935
4 0 110 156 235 347 l229 347 3 -1667 2 -1667 560 0 560 0 0 2560 0 2560 -607
0 -608 0 -477 -769z"/>
<path d="M2751 3262 l-62 -100 272 -439 c150 -241 280 -450 289 -466 l17 -27
66 99 66 99 -284 457 c-156 252 -288 462 -293 467 -6 6 -33 -29 -71 -90z"/>
</g>
</svg>
